<svg version="1.0" xmlns="http://www.w3.org/2000/svg" width="96" height="96" viewBox="0 0 96 96">
    <g transform="translate(0,96) scale(0.1,-0.1)" fill="#525252">
        <path d="M178 824 c-55 -29 -58 -48 -58 -344 0 -298 3 -316 60 -345 43 -22 557 -22 600 0 57 29 60 47 60 345 0 298 -3 316 -60 345 -42 22 -562 22 -602 -1z m586 -60 c24 -23 24 -545 0 -568 -23 -24 -545 -24 -568 0 -24 23 -24 545 0 568 23 24 545 24 568 0z" />
        <path d="M327 633 c-17 -16 -3 -41 50 -95 l57 -58 -58 -59 c-59 -60 -70 -92 -32 -99 12 -3 39 16 77 54 l59 58 59 -58 c38 -38 65 -57 77 -54 38 7 27 39 -32 99 l-58 59 58 59 c38 38 57 65 54 77 -7 38 -39 27 -99 -32 l-59 -58 -58 57 c-54 53 -79 67 -95 50z" />
    </g>
</svg>